<svg xmlns="http://www.w3.org/2000/svg" width="76" height="76"><defs><linearGradient id="a" x1="12.771%" x2="64.357%" y1="-107.109%" y2="130.767%"><stop offset="0%" stop-color="#F5515F"/><stop offset="100%" stop-color="#9F041B"/></linearGradient></defs><g fill="url(#a)" transform="translate(-682 -636)"><path d="M720 712c-20.954 0-38-17.047-38-38s17.046-38 38-38 38 17.047 38 38-17.05 38-38 38zm0-73.423c-19.532 0-35.423 15.89-35.423 35.423 0 19.53 15.891 35.423 35.423 35.423 19.532 0 35.423-15.892 35.423-35.423 0-19.533-15.891-35.423-35.423-35.423z"/><path d="M723.724 687c-.326 0-.652-.125-.9-.381l-12.452-12.701a1.32 1.32 0 0 1 0-1.838l12.452-12.7a1.258 1.258 0 0 1 1.803 0 1.32 1.32 0 0 1 0 1.838L713.076 673l11.55 11.785a1.32 1.32 0 0 1 0 1.837 1.26 1.26 0 0 1-.902.378z"/></g></svg>